<svg width="260" height="112" xmlns="http://www.w3.org/2000/svg" xmlns:xlink="http://www.w3.org/1999/xlink" xml:space="preserve" overflow="hidden"><g transform="translate(-1020 0)"><path d="M4.03235 75.8254C5.11451 59.6709 13.2503 50.4338 16.8133 47.1259 17.4536 46.5314 18.3914 47.0282 18.3349 47.9004L17.0485 67.7554C17.0216 68.169 16.7527 68.5288 16.3733 68.6963 14.7941 69.3931 10.4669 71.6025 5.87579 76.5577 5.20677 77.2797 3.96654 76.8077 4.03235 75.8254Z" stroke="#023163" stroke-width="1.72643" fill="#023163" transform="matrix(1 0 0 1.00424 1020 0)"/><path d="M44.3354 35.496C44.5007 35.609 44.6482 35.7112 44.777 35.8009 44.817 36.1811 44.8712 36.6945 44.9375 37.3261 45.0915 38.7942 45.3118 40.9005 45.576 43.4528 46.1042 48.5572 46.8086 55.4446 47.513 62.5764 48.8327 75.9362 50.1341 89.9897 50.305 94.9269 46.8266 97.0266 41.8179 98.367 36.6269 98.6919 31.0335 99.042 25.561 98.1926 21.8761 96.1579 18.0119 94.0237 15.7755 91.7872 14.4512 89.0699 13.1015 86.3007 12.5996 82.835 12.5996 78.0369 12.5996 69.4124 13.7526 63.4918 15.2441 57.3392 15.5129 56.2304 15.7936 55.111 16.081 53.965 17.3941 48.7291 18.8464 42.9376 19.9327 35.0831 20.2321 32.9179 20.8406 31.4371 21.5771 30.4338 22.2992 29.4501 23.2022 28.8444 24.2589 28.5053 26.4705 27.7958 29.4608 28.2277 32.7257 29.3771 35.9273 30.5043 39.0912 32.2119 41.4805 33.6609 42.6687 34.3816 43.6517 35.0299 44.3354 35.496Z" stroke="#023163" stroke-width="3.45286" fill="#FFFFFF" transform="matrix(1 0 0 1.00424 1020 0)"/><path d="M59.2493 99.3708 52.0501 95.8568C52.0501 95.8568 36.5457 87.2992 36.5457 71.5936 34.1127 71.8218 29.0381 78.5387 26.6997 81.8133 26.1954 82.5194 25.1284 82.3478 24.9383 81.5012 23.7961 76.4131 21.7058 62.7028 28.0889 48.7398 26.128 40.5355 25.6187 38.0518 18.2226 34.8466 16.2693 33.9999 14.0265 33.0259 12.1637 32.2164 9.9725 31.2643 9.63516 29.1525 11.9698 28.6452 13.4243 28.3292 15.4385 28.101 18.2226 28.101 19.7328 26.7922 25.0075 22.0983 32.3927 22.0983 37.7128 22.0983 40.7454 23.3264 43.8015 25.8672 49.3941 30.5173 61.7295 51.9444 55.9767 88.2053 55.4252 91.6802 58.2828 96.614 59.7206 98.8294 59.9171 99.1318 59.5735 99.5289 59.2493 99.3708Z" stroke="#023163" stroke-width="1.72643" fill="#023163" transform="matrix(1 0 0 1.00424 1020 0)"/><path d="M29.1964 32.1281C29.1964 33.5182 28.0695 34.6449 26.6795 34.6449 25.2894 34.6449 24.1625 33.5182 24.1625 32.1281 24.1625 30.7381 25.2894 29.6112 26.6795 29.6112 28.0695 29.6112 29.1964 30.7381 29.1964 32.1281Z" fill="#FFFFFF" transform="matrix(1 0 0 1.00424 1020 0)"/><path d="M29.1964 32.1281C29.1964 33.5182 28.0695 34.6449 26.6795 34.6449 25.2894 34.6449 24.1625 33.5182 24.1625 32.1281 24.1625 30.7381 25.2894 29.6112 26.6795 29.6112 28.0695 29.6112 29.1964 30.7381 29.1964 32.1281Z" fill="#FFFFFF" transform="matrix(1 0 0 1.00424 1020 0)"/><path d="M29.1964 32.5308C29.1964 33.5873 28.34 34.4437 27.2835 34.4437 26.2271 34.4437 25.3707 33.5873 25.3707 32.5308 25.3707 31.4744 26.2271 30.618 27.2835 30.618 28.34 30.618 29.1964 31.4744 29.1964 32.5308Z" fill="#023163" transform="matrix(1 0 0 1.00424 1020 0)"/><path d="M16.9833 29.2663C16.2253 29.171 15.0361 29.2023 13.791 29.2965 11.2229 29.4908 11.1742 30.8726 13.5904 31.7645 15.6344 32.5189 17.4909 33.2356 17.4909 33.2356 17.4909 33.2356 17.6943 30.216 16.9833 29.2663Z" fill="#FFD133" transform="matrix(1 0 0 1.00424 1020 0)"/><path d="M91.7078 105.181C90.6661 105.181 89.7597 104.988 88.9891 104.603 88.2184 104.203 87.619 103.654 87.1908 102.954 86.7768 102.241 86.57 101.413 86.57 100.471L86.57 93.8348C86.57 92.8929 86.7768 92.0721 87.1908 91.3729 87.619 90.6592 88.2184 90.1098 88.9891 89.7245 89.7597 89.325 90.6661 89.1251 91.7078 89.1251 92.7641 89.1251 93.6701 89.325 94.4266 89.7245 95.1973 90.1098 95.7895 90.6592 96.2035 91.3729 96.6316 92.0721 96.8457 92.8929 96.8457 93.8348L96.8457 100.471C96.8457 101.413 96.6316 102.241 96.2035 102.954 95.7895 103.654 95.1973 104.203 94.4266 104.603 93.6701 104.988 92.7641 105.181 91.7078 105.181ZM91.7078 102.398C92.3501 102.398 92.8283 102.234 93.1422 101.906 93.4705 101.563 93.6345 101.085 93.6345 100.471L93.6345 93.8348C93.6345 93.2067 93.4774 92.7289 93.1636 92.4005 92.8497 92.0721 92.3642 91.9081 91.7078 91.9081 91.0515 91.9081 90.566 92.0721 90.2521 92.4005 89.9383 92.7289 89.7811 93.2067 89.7811 93.8348L89.7811 100.471C89.7811 101.085 89.9383 101.563 90.2521 101.906 90.5805 102.234 91.0656 102.398 91.7078 102.398ZM99.5348 104.967 99.5348 89.3392 104.865 89.3392C105.964 89.3392 106.92 89.546 107.734 89.96 108.562 90.374 109.197 90.952 109.639 91.694 110.096 92.4361 110.324 93.3069 110.324 94.3058 110.324 95.2905 110.096 96.161 109.639 96.9175 109.182 97.6595 108.547 98.2375 107.734 98.6515 106.92 99.0655 105.964 99.2724 104.865 99.2724L102.746 99.2724 102.746 104.967 99.5348 104.967ZM102.746 96.3823 104.865 96.3823C105.55 96.3823 106.092 96.1969 106.492 95.8257 106.906 95.4404 107.113 94.9338 107.113 94.3058 107.113 93.6777 106.906 93.1784 106.492 92.8072 106.092 92.4219 105.55 92.2292 104.865 92.2292L102.746 92.2292 102.746 96.3823ZM112.671 104.967 112.671 89.3392 122.304 89.3392 122.304 92.0794 115.818 92.0794 115.818 95.5902 121.555 95.5902 121.555 98.3304 115.818 98.3304 115.818 102.227 122.304 102.227 122.304 104.967 112.671 104.967ZM125.079 104.967 125.079 89.3392 128.825 89.3392 132.871 101.435C132.828 100.907 132.779 100.3 132.721 99.6149 132.664 98.9157 132.614 98.2234 132.571 97.5383 132.543 96.8391 132.529 96.2466 132.529 95.7615L132.529 89.3392 135.354 89.3392 135.354 104.967 131.608 104.967 127.605 92.8715C127.648 93.3283 127.69 93.8704 127.733 94.4984 127.776 95.1265 127.812 95.7615 127.84 96.4037 127.883 97.046 127.904 97.6167 127.904 98.1163L127.904 104.967 125.079 104.967ZM137.166 104.967 140.998 89.3392 145.065 89.3392 148.94 104.967 145.665 104.967 144.915 101.435 141.19 101.435 140.441 104.967 137.166 104.967ZM141.726 98.8656 144.359 98.8656 143.609 95.0979C143.51 94.5554 143.403 94.0202 143.288 93.4923 143.189 92.9498 143.11 92.5289 143.053 92.2292 142.996 92.5289 142.917 92.9429 142.817 93.4709 142.732 93.9988 142.632 94.534 142.518 95.0764L141.726 98.8656ZM154.284 104.967 154.284 92.3363 150.323 92.3363 150.323 89.3392 161.455 89.3392 161.455 92.3363 157.495 92.3363 157.495 104.967 154.284 104.967ZM168.726 105.181C167.683 105.181 166.777 104.988 166.007 104.603 165.236 104.203 164.637 103.654 164.208 102.954 163.794 102.241 163.588 101.413 163.588 100.471L163.588 93.8348C163.588 92.8929 163.794 92.0721 164.208 91.3729 164.637 90.6592 165.236 90.1098 166.007 89.7245 166.777 89.325 167.683 89.1251 168.726 89.1251 169.781 89.1251 170.688 89.325 171.444 89.7245 172.215 90.1098 172.807 90.6592 173.221 91.3729 173.649 92.0721 173.863 92.8929 173.863 93.8348L173.863 100.471C173.863 101.413 173.649 102.241 173.221 102.954 172.807 103.654 172.215 104.203 171.444 104.603 170.688 104.988 169.781 105.181 168.726 105.181ZM168.726 102.398C169.368 102.398 169.846 102.234 170.16 101.906 170.488 101.563 170.652 101.085 170.652 100.471L170.652 93.8348C170.652 93.2067 170.495 92.7289 170.181 92.4005 169.867 92.0721 169.382 91.9081 168.726 91.9081 168.069 91.9081 167.584 92.0721 167.27 92.4005 166.956 92.7289 166.799 93.2067 166.799 93.8348L166.799 100.471C166.799 101.085 166.956 101.563 167.27 101.906 167.598 102.234 168.083 102.398 168.726 102.398ZM176.038 104.967 176.038 89.3392 179.656 89.3392 181.091 94.263C181.248 94.7767 181.362 95.2263 181.433 95.6116 181.519 95.997 181.569 96.268 181.583 96.4251 181.597 96.268 181.64 95.997 181.711 95.6116 181.797 95.2263 181.911 94.7767 182.054 94.263L183.467 89.3392 187.085 89.3392 187.085 104.967 184.152 104.967 184.152 100.685C184.152 99.9004 184.166 99.0797 184.195 98.2234 184.237 97.3529 184.288 96.4893 184.344 95.633 184.402 94.7767 184.466 93.9774 184.537 93.2354 184.609 92.4789 184.673 91.8225 184.73 91.2659L182.932 98.3304 180.213 98.3304 178.329 91.2659C178.4 91.7938 178.472 92.4291 178.543 93.1712 178.614 93.899 178.679 94.6911 178.736 95.5474 178.807 96.3896 178.864 97.2528 178.907 98.1377 178.95 99.0227 178.971 99.8718 178.971 100.685L178.971 104.967 176.038 104.967ZM207.32 105.181C206.278 105.181 205.364 104.988 204.58 104.603 203.795 104.203 203.181 103.654 202.739 102.954 202.31 102.241 202.096 101.413 202.096 100.471L202.096 93.8348C202.096 92.8787 202.31 92.0507 202.739 91.3515 203.181 90.6523 203.795 90.1098 204.58 89.7245 205.364 89.325 206.278 89.1251 207.32 89.1251 208.376 89.1251 209.289 89.325 210.06 89.7245 210.845 90.1098 211.451 90.6523 211.88 91.3515 212.322 92.0507 212.543 92.8787 212.543 93.8348L209.332 93.8348C209.332 93.2067 209.154 92.7289 208.797 92.4005 208.454 92.0721 207.962 91.9081 207.32 91.9081 206.678 91.9081 206.178 92.0721 205.821 92.4005 205.479 92.7289 205.307 93.2067 205.307 93.8348L205.307 100.471C205.307 101.085 205.479 101.563 205.821 101.906 206.178 102.234 206.678 102.398 207.32 102.398 207.962 102.398 208.454 102.234 208.797 101.906 209.154 101.563 209.332 101.085 209.332 100.471L212.543 100.471C212.543 101.413 212.322 102.241 211.88 102.954 211.451 103.654 210.845 104.203 210.06 104.603 209.289 104.988 208.376 105.181 207.32 105.181ZM215.682 104.967 215.682 89.3392 218.893 89.3392 218.893 101.97 225.208 101.97 225.208 104.967 215.682 104.967ZM232.907 105.181C231.323 105.181 230.067 104.753 229.139 103.896 228.225 103.04 227.769 101.87 227.769 100.386L227.769 89.3392 230.98 89.3392 230.98 100.364C230.98 101.021 231.144 101.527 231.473 101.884 231.815 102.227 232.293 102.398 232.907 102.398 233.506 102.398 233.977 102.227 234.32 101.884 234.662 101.527 234.834 101.021 234.834 100.364L234.834 89.3392 238.045 89.3392 238.045 100.386C238.045 101.855 237.581 103.026 236.653 103.896 235.74 104.753 234.491 105.181 232.907 105.181ZM240.733 104.967 240.733 89.3392 245.764 89.3392C247.348 89.3392 248.611 89.7031 249.553 90.431 250.495 91.1447 250.966 92.1149 250.966 93.3424 250.966 94.0275 250.802 94.6269 250.474 95.1407 250.16 95.6544 249.732 96.0539 249.189 96.3395 248.662 96.6251 248.084 96.7677 247.455 96.7677L247.455 96.8319C248.155 96.8177 248.79 96.9462 249.361 97.2172 249.946 97.4883 250.417 97.895 250.774 98.4375 251.131 98.9799 251.309 99.6504 251.309 100.45 251.309 101.363 251.088 102.162 250.645 102.847 250.217 103.518 249.603 104.039 248.804 104.41 248.005 104.781 247.056 104.967 245.957 104.967L240.733 104.967ZM243.838 102.376 245.828 102.376C246.528 102.376 247.077 102.191 247.477 101.82 247.877 101.449 248.076 100.935 248.076 100.279 248.076 99.6221 247.877 99.1083 247.477 98.7372 247.077 98.3518 246.528 98.1591 245.828 98.1591L243.838 98.1591 243.838 102.376ZM243.838 95.633 245.721 95.633C246.349 95.633 246.842 95.469 247.199 95.1407 247.556 94.7981 247.734 94.3413 247.734 93.7706 247.734 93.1853 247.556 92.7357 247.199 92.4219 246.842 92.0935 246.349 91.9295 245.721 91.9295L243.838 91.9295 243.838 95.633Z" fill="#023163" transform="matrix(1 0 0 1.00424 1020 0)"/><path d="M83.5384 77.344 83.5384 21.8911 93.0337 21.8911 93.0337 44.1482 107.922 44.1482 107.922 21.8911 117.418 21.8911 117.418 77.344 107.922 77.344 107.922 52.9599 93.0337 52.9599 93.0337 77.344 83.5384 77.344ZM146.026 78.1036C140.608 78.1036 136.354 76.6351 133.264 73.6977 130.226 70.71 128.707 66.6584 128.707 61.5437L128.707 21.8911 138.278 21.8911 138.278 61.4677C138.278 64.1012 138.936 66.1522 140.253 67.6207 141.569 69.0892 143.494 69.8236 146.026 69.8236 148.508 69.8236 150.407 69.0892 151.723 67.6207 153.091 66.1522 153.774 64.1012 153.774 61.4677L153.774 21.8911 163.346 21.8911 163.346 61.5437C163.346 66.6584 161.826 70.71 158.788 73.6977 155.749 76.6351 151.495 78.1036 146.026 78.1036ZM191.726 78.1036C187.928 78.1036 184.636 77.4707 181.851 76.2045 179.065 74.9384 176.913 73.1408 175.394 70.8112 173.926 68.4311 173.166 65.6457 173.115 62.4552L182.61 62.4552C182.61 64.7341 183.421 66.532 185.041 67.8486 186.712 69.1148 188.966 69.7477 191.802 69.7477 194.537 69.7477 196.664 69.1148 198.183 67.8486 199.753 66.5824 200.538 64.8353 200.538 62.6072 200.538 60.7333 199.981 59.1129 198.867 57.7456 197.803 56.3275 196.259 55.3655 194.233 54.859L187.852 53.1118C183.497 51.9976 180.129 49.9973 177.749 47.1108 175.419 44.2242 174.255 40.7299 174.255 36.6279 174.255 33.4881 174.963 30.7534 176.382 28.4239 177.8 26.0944 179.8 24.2966 182.383 23.0305 185.016 21.7645 188.105 21.1315 191.65 21.1315 197.018 21.1315 201.272 22.5241 204.412 25.3094 207.551 28.0441 209.147 31.741 209.197 36.4L199.702 36.4C199.702 34.2224 198.993 32.5259 197.575 31.3105 196.157 30.0444 194.157 29.4114 191.574 29.4114 189.093 29.4114 187.168 29.9938 185.801 31.1586 184.434 32.3233 183.75 33.9692 183.75 36.0961 183.75 38.0204 184.256 39.6664 185.269 41.0337 186.333 42.3503 187.852 43.2874 189.827 43.8444L196.436 45.6675C200.842 46.7817 204.209 48.7819 206.539 51.6685 208.868 54.5044 210.033 58.0242 210.033 62.2274 210.033 65.367 209.273 68.1525 207.754 70.5833 206.235 72.9633 204.108 74.812 201.373 76.1286 198.639 77.4451 195.423 78.1036 191.726 78.1036ZM232.336 77.344 232.336 30.7028 217.828 30.7028 217.828 21.8911 256.417 21.8911 256.417 30.7028 241.908 30.7028 241.908 77.344 232.336 77.344Z" fill="#023163" transform="matrix(1 0 0 1.00424 1020 0)"/></g></svg>